<svg width="18" height="37" viewBox="0 0 18 37" fill="none" xmlns="http://www.w3.org/2000/svg">
<path d="M14.3008 25.8589C14.3008 24.6909 13.8882 23.707 13.063 22.9072C12.2505 22.1074 10.873 21.3838 8.93066 20.7363C6.22656 19.9111 4.25244 18.8384 3.0083 17.5181C1.77686 16.1851 1.16113 14.4966 1.16113 12.4526C1.16113 10.3706 1.76416 8.66309 2.97021 7.33008C4.18896 5.99707 5.8584 5.20361 7.97852 4.94971V0.779297H10.8159V4.96875C12.9487 5.26074 14.6055 6.15576 15.7861 7.65381C16.9795 9.15186 17.5762 11.2021 17.5762 13.8047H14.0723C14.0723 12.0146 13.647 10.5928 12.7964 9.53906C11.9458 8.48535 10.7969 7.9585 9.34961 7.9585C7.83887 7.9585 6.68359 8.35205 5.88379 9.13916C5.08398 9.91357 4.68408 10.999 4.68408 12.3955C4.68408 13.6904 5.10303 14.7251 5.94092 15.4995C6.7915 16.2612 8.18164 16.9595 10.1113 17.5942C12.0537 18.2163 13.5645 18.9082 14.6436 19.6699C15.7354 20.4189 16.5352 21.2949 17.043 22.2979C17.5635 23.3008 17.8237 24.4751 17.8237 25.8208C17.8237 27.9663 17.1763 29.6929 15.8813 31.0005C14.5991 32.3081 12.7964 33.0825 10.4731 33.3237V36.9609H7.65479V33.3237C5.29346 33.1079 3.43994 32.27 2.09424 30.8101C0.76123 29.3374 0.0947266 27.3442 0.0947266 24.8306H3.61768C3.61768 26.5952 4.08105 27.9536 5.00781 28.9058C5.93457 29.8579 7.24854 30.334 8.94971 30.334C10.6128 30.334 11.9204 29.9341 12.8726 29.1343C13.8247 28.3345 14.3008 27.2427 14.3008 25.8589Z" fill="black"/>
</svg>
