<svg width="64" height="64" viewBox="0 0 64 64" fill="none" xmlns="http://www.w3.org/2000/svg">
<path fill-rule="evenodd" clip-rule="evenodd" d="M29.5485 10.1239C36.2036 11.3289 42.5125 7.28606 40.6321 3.02046L40.63 3.01586C30.9102 5.43446 22.2543 2.70036 23.2544 2.94036C21.7865 6.65626 25.5933 9.40756 29.5485 10.1239ZM31.9439 28.3791C30.4454 28.4625 28.5716 28.7719 27.6753 29.965C26.8381 31.0792 26.6387 33.8335 27.4386 35.0113C27.8664 35.6414 28.5652 36.0064 29.2943 36.2371C30.149 36.5075 31.0494 36.6082 31.9439 36.6529V28.3791ZM33.9439 38.6796V48.0895C40.7537 47.5822 39.9132 40.2838 36.1115 39.0483C35.4126 38.8211 34.6771 38.721 33.9439 38.6796ZM31.9439 26.3996C31.9439 24.6731 31.6937 23.4748 32.9439 23.4099C33.5558 23.4411 33.9149 23.8419 33.9439 24.3985V26.406C38.3278 26.684 39.8808 28.9542 39.7758 30.8559C39.6682 32.1327 37.7322 32.0914 37.7807 30.7165C37.8361 29.1444 35.5934 28.507 33.9439 28.3879V36.7009C38.0641 36.9155 40.708 38.8116 40.9292 42.8405C41.1732 47.2744 38.5082 49.795 33.9439 50.0713C33.9439 51.8294 34.1033 52.3762 33.6131 52.8128C33.0215 53.3391 31.9949 53.0321 31.9439 52.0782V50.0811C29.511 49.9841 26.3567 49.432 25.2918 47.2392C23.9337 44.446 26.8265 43.878 26.9495 45.8268C27.107 47.6216 30.1435 48.0184 31.9439 48.1017V38.6329C27.4879 38.4163 24.7792 36.8808 24.9555 32.4769C25.1182 28.3909 27.4447 26.6954 31.6519 26.4162C31.7492 26.4098 31.8466 26.4042 31.9439 26.3996ZM31.3611 13.0277C22.986 17.582 13.0806 25.4439 10.5638 34.6795C9.02407 40.3291 10.361 47.3369 14.72 52.7516C35.3932 78.4343 80.9346 39.2071 32.2976 13.0356C31.9855 13.0334 31.6733 13.0307 31.3611 13.0277ZM25.8784 11.0358C18.9677 7.82536 20.4462 1.02636 23.1839 0.952561C24.1839 0.945461 30.8544 3.29586 39.6651 1.21516C40.6651 0.978561 41.5271 0.858261 42.2299 1.81176C43.5665 3.62566 43.6285 8.42616 38.0105 11.0341C39.0744 11.2722 39.0467 12.8605 37.85 12.9825C35.6365 13.0573 35.7455 12.5645 39.1851 14.9086C81.1935 43.5427 34.0637 80.6075 12.9768 53.7587C8.41247 47.9473 6.93007 40.4126 8.63257 34.1653C10.7972 26.2205 17.7376 19.5837 24.5227 14.9086C27.9262 12.5636 28.0778 12.9848 26.1061 12.9848C25.0486 12.9486 24.7581 11.6498 25.5865 11.1516C25.6787 11.0962 25.7763 11.0592 25.8784 11.0358Z" fill="black"/>
</svg>
